<?xml version="1.0" encoding="UTF-8" standalone="no"?>
<svg
   xmlns:dc="http://purl.org/dc/elements/1.1/"
   xmlns:cc="http://creativecommons.org/ns#"
   xmlns:rdf="http://www.w3.org/1999/02/22-rdf-syntax-ns#"
   xmlns:svg="http://www.w3.org/2000/svg"
   xmlns="http://www.w3.org/2000/svg"
   viewBox="0 0 408.07701 544.35414"
   height="544.35413"
   width="408.077"
   xml:space="preserve"
   id="svg10"
   version="1.1"><metadata
     id="metadata16"><rdf:RDF><cc:Work
         rdf:about=""><dc:format>image/svg+xml</dc:format><dc:type
           rdf:resource="http://purl.org/dc/dcmitype/StillImage" /><dc:title></dc:title></cc:Work></rdf:RDF></metadata><defs
     id="defs14"><clipPath
       id="clipPath26"
       clipPathUnits="userSpaceOnUse"><path
         id="path24"
         d="M 0,858.898 H 1207.558 V 0 H 0 Z" /></clipPath><clipPath
       id="clipPath542"
       clipPathUnits="userSpaceOnUse"><path
         id="path540"
         d="M 0,858.898 H 1207.558 V 0 H 0 Z" /></clipPath><clipPath
       id="clipPath694"
       clipPathUnits="userSpaceOnUse"><path
         id="path692"
         d="M 0,858.898 H 1207.558 V 0 H 0 Z" /></clipPath><clipPath
       clipPathUnits="userSpaceOnUse"
       id="clipPath694-0"><path
         d="M 0,858.898 H 1207.558 V 0 H 0 Z"
         id="path692-9" /></clipPath></defs><g
     transform="matrix(1.3333333,0,0,-1.3333333,957.07179,1286.7219)"
     id="g18"><g
       id="g688"
       transform="translate(-760.94948,335.52396)"><g
         id="g690"
         clip-path="url(#clipPath694-0)"><g
           id="g696"
           transform="translate(127.8628,260.0023)"><path
             d="m 0,0 c 3.75,-17.59 14.156,-28.57 14.156,-28.57 9.482,-9.115 16.656,-9.065 16.656,-9.065 18.605,-0.458 26.65,2.234 26.813,2.302 9.722,4.065 7.834,38.818 7.834,38.818"
             style="fill:#fef6e3;fill-opacity:1;fill-rule:nonzero;stroke:#4f4c4d;stroke-width:2.126;stroke-linecap:butt;stroke-linejoin:miter;stroke-miterlimit:10;stroke-dasharray:none;stroke-opacity:1"
             id="path698" /></g><g
           id="g700"
           transform="translate(169.5366,228.4027)"><path
             d="M 0,0 C 0.046,-0.956 0.976,-4.804 1.53,-5.657"
             style="fill:none;stroke:#4f4c4d;stroke-width:2.126;stroke-linecap:round;stroke-linejoin:miter;stroke-miterlimit:10;stroke-dasharray:none;stroke-opacity:1"
             id="path702" /></g><g
           id="g704"
           transform="translate(264.4844,260.0023)"><path
             d="m 0,0 c -3.75,-17.59 -14.156,-28.57 -14.156,-28.57 -9.482,-9.115 -16.656,-9.065 -16.656,-9.065 -18.605,-0.458 -26.65,2.234 -26.813,2.302 -9.722,4.065 -7.834,38.818 -7.834,38.818"
             style="fill:#fef6e3;fill-opacity:1;fill-rule:nonzero;stroke:#4f4c4d;stroke-width:2.126;stroke-linecap:butt;stroke-linejoin:miter;stroke-miterlimit:10;stroke-dasharray:none;stroke-opacity:1"
             id="path706" /></g><g
           id="g708"
           transform="translate(222.9443,228.4027)"><path
             d="M 0,0 C -0.046,-0.956 -0.976,-4.804 -1.53,-5.657"
             style="fill:none;stroke:#4f4c4d;stroke-width:2.126;stroke-linecap:round;stroke-linejoin:miter;stroke-miterlimit:10;stroke-dasharray:none;stroke-opacity:1"
             id="path710" /></g><g
           id="g712"
           transform="translate(335.7754,382.7855)"><path
             d="m 0,0 c 0,0 13.443,14.932 12.294,30.46 -0.517,6.986 -3.622,20.638 -19.682,27.443 0,0 11.167,8.551 9.44,21.43 -1.513,11.279 -13.215,18.531 -13.215,18.531 0,0 17.266,23.482 -16.566,38.68 -0.299,0.135 14.274,19.85 8.414,36.451 -5.257,14.891 -22.514,21.358 -22.514,21.358 0,0 1.779,18.049 -25.092,29.436 -22.637,9.593 -44.488,-0.827 -44.488,-0.827 0,0 -10.784,22.705 -43.005,22.707 -42.209,0.002 -55.568,-34.968 -55.568,-34.968 0,0 -32.406,2.797 -33.253,-30.768 -27.117,-9.247 -8.982,-43.439 -8.982,-43.439 -33.824,-15.213 -16.545,-38.687 -16.545,-38.687 0,0 -11.603,-3.506 -12.404,-18.747 -0.682,-12.971 8.649,-21.216 8.649,-21.216 -16.056,-6.812 -18.29,-18.692 -18.894,-25.674 -1.735,-20.078 11.536,-32.232 11.536,-32.232 0,0 -14.413,-14.744 -8.149,-35.425 6.006,-19.832 25.333,-23.997 25.333,-23.997 0,0 -6.971,-23.775 8.375,-37.844 15.992,-14.662 32.908,-10.398 32.908,-10.398 5.712,-13.871 15.634,-24.377 36.902,-28.525 26.836,-5.234 45.143,10.15 46.299,9.293 7.704,-9.127 24.874,-13.463 43.333,-9.909 20.618,3.968 35.867,16.435 36.911,29.194 4.546,-0.165 20.941,1.348 33.414,15.153 13.722,15.189 7.399,33.09 7.399,33.09 0,0 16.107,2.341 23.641,22.268 C 14.444,-16.126 0,0 0,0"
             style="fill:#e3f5ec;fill-opacity:1;fill-rule:nonzero;stroke:none"
             id="path714" /></g><g
           id="g716"
           transform="translate(335.7754,382.7855)"><path
             d="m 0,0 c 0,0 13.443,14.932 12.294,30.46 -0.517,6.986 -3.622,20.638 -19.682,27.443 0,0 11.167,8.551 9.44,21.43 -1.513,11.279 -13.215,18.531 -13.215,18.531 0,0 17.266,23.482 -16.566,38.68 -0.299,0.135 14.274,19.85 8.414,36.451 -5.257,14.891 -22.514,21.358 -22.514,21.358 0,0 1.779,18.049 -25.092,29.436 -22.637,9.593 -44.488,-0.827 -44.488,-0.827 0,0 -10.784,22.705 -43.005,22.707 -42.209,0.002 -55.568,-34.968 -55.568,-34.968 0,0 -32.406,2.797 -33.253,-30.768 -27.117,-9.247 -8.982,-43.439 -8.982,-43.439 -33.824,-15.213 -16.545,-38.687 -16.545,-38.687 0,0 -11.603,-3.506 -12.404,-18.747 -0.682,-12.971 8.649,-21.216 8.649,-21.216 -16.056,-6.812 -18.29,-18.692 -18.894,-25.674 -1.735,-20.078 11.536,-32.232 11.536,-32.232 0,0 -14.413,-14.744 -8.149,-35.425 6.006,-19.832 25.333,-23.997 25.333,-23.997 0,0 -6.971,-23.775 8.375,-37.844 15.992,-14.662 32.908,-10.398 32.908,-10.398 5.712,-13.871 15.634,-24.377 36.902,-28.525 26.836,-5.234 45.143,10.15 46.299,9.293 7.704,-9.127 24.874,-13.463 43.333,-9.909 20.618,3.968 35.867,16.435 36.911,29.194 4.546,-0.165 20.941,1.348 33.414,15.153 13.722,15.189 7.399,33.09 7.399,33.09 0,0 16.107,2.341 23.641,22.268 C 14.444,-16.126 0,0 0,0 Z"
             style="fill:none;stroke:#4f4c4d;stroke-width:2.126;stroke-linecap:butt;stroke-linejoin:round;stroke-miterlimit:10;stroke-dasharray:none;stroke-opacity:1"
             id="path718" /></g><g
           id="g720"
           transform="translate(126.124,406.2484)"><path
             d="M 0,0 C 0,0 39,-21.5 28.841,-36.259 21.814,-46.469 -16,-28.75 -16,-28.75"
             style="fill:#fef6e3;fill-opacity:1;fill-rule:nonzero;stroke:#4f4c4d;stroke-width:2.126;stroke-linecap:round;stroke-linejoin:round;stroke-miterlimit:10;stroke-dasharray:none;stroke-opacity:1"
             id="path722" /></g><g
           id="g724"
           transform="translate(121.2153,424.6146)"><path
             d="M 0,0 C 16.625,-3.25 12.25,-19.375 12.25,-19.375 9.703,-26.116 5,-26.625 5,-26.625 c 0,0 5.703,-4.991 3.75,-10.125 -2.231,-5.864 -9.5,-5 -9.5,-5 1.5,-8.875 -5.615,-13.522 -5.615,-13.522 -10.161,-5.844 -19.135,5.522 -19.135,5.522"
             style="fill:#e3f5ec;fill-opacity:1;fill-rule:nonzero;stroke:#4f4c4d;stroke-width:2.126;stroke-linecap:round;stroke-linejoin:round;stroke-miterlimit:10;stroke-dasharray:none;stroke-opacity:1"
             id="path726" /></g><g
           id="g728"
           transform="translate(266.2231,406.2494)"><path
             d="M 0,0 C 0,0 -39,-21.5 -28.841,-36.259 -21.814,-46.469 16,-28.75 16,-28.75"
             style="fill:#fef6e3;fill-opacity:1;fill-rule:nonzero;stroke:#4f4c4d;stroke-width:2.126;stroke-linecap:round;stroke-linejoin:round;stroke-miterlimit:10;stroke-dasharray:none;stroke-opacity:1"
             id="path730" /></g><g
           id="g732"
           transform="translate(271.1318,424.6156)"><path
             d="m 0,0 c -16.625,-3.25 -12.25,-19.375 -12.25,-19.375 2.547,-6.741 7.25,-7.25 7.25,-7.25 0,0 -5.703,-4.991 -3.75,-10.125 2.231,-5.864 9.5,-5 9.5,-5 -1.5,-8.875 5.615,-13.522 5.615,-13.522 10.161,-5.844 19.135,5.522 19.135,5.522"
             style="fill:#e3f5ec;fill-opacity:1;fill-rule:nonzero;stroke:#4f4c4d;stroke-width:2.126;stroke-linecap:round;stroke-linejoin:round;stroke-miterlimit:10;stroke-dasharray:none;stroke-opacity:1"
             id="path734" /></g><g
           id="g736"
           transform="translate(86.394,478.9671)"><path
             d="m 0,0 c -7.314,7.886 12.709,24.206 28.641,26.369 0,0 32.196,21.122 33.326,22.886 L 175.976,32.372 c 1.913,-0.234 13.137,-5.752 14.982,-6.003 C 206.889,24.206 226.913,7.886 219.599,0 c -11.902,-12.833 -31.665,-0.607 -31.665,-0.607 9.865,-59.666 -78.158,-56.769 -78.158,-56.769 0,0 -87.421,-2.897 -77.555,56.769 0,0 -20.319,-12.226 -32.221,0.607"
             style="fill:#fef6e3;fill-opacity:1;fill-rule:nonzero;stroke:none"
             id="path738" /></g><g
           id="g740"
           transform="translate(87.0303,479.5575)"><path
             d="m 0,0 c 1.906,-2.013 4.24,-3.588 6.852,-4.484 1.305,-0.442 2.66,-0.742 4.038,-0.907 1.382,-0.146 2.781,-0.162 4.178,-0.073 2.798,0.183 5.575,0.814 8.265,1.696 2.667,0.91 5.32,2.086 7.703,3.481 0.508,0.3 1.163,0.131 1.462,-0.378 0.13,-0.22 0.171,-0.471 0.135,-0.706 -0.704,-4.515 -1.021,-9.111 -0.497,-13.626 0.451,-4.518 1.752,-8.927 3.804,-12.951 2.086,-4.01 4.94,-7.609 8.318,-10.649 3.386,-3.035 7.229,-5.569 11.305,-7.657 8.177,-4.17 17.147,-6.722 26.22,-8.378 9.109,-1.619 18.325,-2.416 27.634,-2.3 9.209,-0.09 18.497,0.724 27.582,2.353 9.073,1.662 18.043,4.217 26.225,8.38 4.082,2.078 7.927,4.611 11.323,7.636 3.39,3.03 6.255,6.623 8.356,10.626 2.068,4.017 3.382,8.423 3.843,12.94 0.533,4.515 0.219,9.113 -0.484,13.628 -0.09,0.576 0.304,1.114 0.879,1.204 0.255,0.04 0.504,-0.016 0.709,-0.14 3.602,-2.122 7.663,-3.821 11.812,-4.658 4.14,-0.849 8.515,-0.868 12.397,0.663 1.932,0.752 3.728,1.856 5.257,3.277 0.364,0.367 0.758,0.735 1.1,1.098 0.323,0.351 0.587,0.74 0.788,1.156 0.408,0.83 0.548,1.776 0.439,2.737 -0.226,1.936 -1.256,3.825 -2.493,5.503 -1.251,1.691 -2.753,3.221 -4.356,4.631 -3.229,2.808 -6.885,5.15 -10.745,7.029 -1.932,0.935 -3.923,1.749 -5.959,2.405 -1.018,0.327 -2.047,0.614 -3.085,0.853 -0.519,0.118 -1.04,0.226 -1.562,0.319 l -0.785,0.128 -0.393,0.059 c -0.134,0.02 -0.333,0.069 -0.496,0.106 -1.205,0.346 -2.151,0.778 -3.189,1.2 l -3.022,1.301 c -2.003,0.872 -3.999,1.766 -5.997,2.573 -0.499,0.203 -0.998,0.393 -1.487,0.565 -0.527,0.179 -0.811,0.247 -1.42,0.326 l -3.242,0.476 -6.485,0.953 -103.75,15.234 1.035,0.471 -0.001,-0.002 c -0.316,-0.426 -0.447,-0.488 -0.638,-0.67 -0.177,-0.156 -0.348,-0.295 -0.52,-0.432 l -1.028,-0.791 -2.062,-1.504 -4.155,-2.91 -8.373,-5.692 C 39.835,32.336 34.216,28.609 28.579,24.903 28.45,24.818 28.309,24.766 28.166,24.744 L 28.145,24.741 H 28.144 C 24.633,24.284 21.175,23.2 17.877,21.775 14.583,20.328 11.439,18.516 8.527,16.404 5.639,14.279 2.915,11.852 0.886,8.976 -0.111,7.543 -0.933,5.974 -1.216,4.36 -1.519,2.749 -1.105,1.167 0,0 m -1.272,-1.18 c -0.704,0.759 -1.269,1.696 -1.553,2.726 -0.287,1.029 -0.299,2.102 -0.131,3.106 0.351,2.018 1.291,3.772 2.368,5.347 2.197,3.142 5.027,5.668 8.02,7.899 3.015,2.213 6.256,4.099 9.669,5.627 3.405,1.537 6.997,2.737 10.761,3.291 h 0.001 L 27.43,26.654 c 5.629,3.7 11.246,7.426 16.836,11.183 l 8.352,5.678 4.128,2.89 2.023,1.475 0.975,0.751 0.452,0.375 c 0.124,0.096 0.318,0.309 0.252,0.224 v 0 l 1.036,0.471 103.692,-15.485 6.481,-0.967 3.24,-0.484 c 0.477,-0.051 1.263,-0.22 1.764,-0.413 0.541,-0.192 1.062,-0.393 1.574,-0.602 2.051,-0.836 4.04,-1.735 6.041,-2.612 l 2.993,-1.3 c 0.98,-0.407 2.037,-0.867 2.934,-1.124 0.104,-0.02 0.167,-0.048 0.303,-0.07 l 0.417,-0.062 0.831,-0.14 c 0.553,-0.098 1.101,-0.214 1.647,-0.339 1.091,-0.253 2.167,-0.557 3.227,-0.9 2.122,-0.689 4.183,-1.538 6.18,-2.511 3.988,-1.954 7.749,-4.373 11.11,-7.308 1.671,-1.477 3.247,-3.084 4.593,-4.911 1.322,-1.822 2.506,-3.891 2.797,-6.327 0.133,-1.208 -0.038,-2.508 -0.587,-3.647 -0.27,-0.569 -0.625,-1.094 -1.037,-1.552 -0.402,-0.435 -0.805,-0.816 -1.208,-1.225 -1.662,-1.568 -3.643,-2.812 -5.772,-3.658 -4.287,-1.725 -9.027,-1.713 -13.406,-0.85 -4.415,0.901 -8.592,2.46 -12.552,4.696 l 1.587,1.064 c 0.727,-4.67 1.055,-9.455 0.497,-14.201 -0.486,-4.744 -1.873,-9.419 -4.069,-13.678 -2.227,-4.245 -5.263,-8.042 -8.816,-11.215 -3.559,-3.17 -7.557,-5.796 -11.769,-7.94 -8.442,-4.291 -17.587,-6.883 -26.803,-8.572 -9.243,-1.652 -18.592,-2.474 -28.002,-2.382 -9.313,-0.121 -18.737,0.681 -27.96,2.322 -9.219,1.681 -18.367,4.268 -26.808,8.566 -4.208,2.154 -8.207,4.781 -11.759,7.963 -3.542,3.185 -6.57,6.991 -8.783,11.245 -2.182,4.267 -3.557,8.946 -4.034,13.692 -0.549,4.747 -0.218,9.532 0.509,14.202 l 1.596,-1.084 c -2.654,-1.478 -5.361,-2.597 -8.198,-3.503 -2.825,-0.896 -5.752,-1.546 -8.749,-1.718 -1.497,-0.084 -3.005,-0.056 -4.507,0.115 -1.5,0.19 -2.987,0.53 -4.424,1.03 -2.879,1.01 -5.465,2.788 -7.526,5.004"
             style="fill:#4f4c4d;fill-opacity:1;fill-rule:nonzero;stroke:none"
             id="path742" /></g><g
           id="g744"
           transform="translate(233.8804,467.308)"><path
             d="m 0,0 c 0,-2.658 2.155,-4.812 4.813,-4.812 2.658,0 4.812,2.154 4.812,4.812 0,2.658 -2.154,4.813 -4.812,4.813 C 2.155,4.813 0,2.658 0,0"
             style="fill:#4f4c4d;fill-opacity:1;fill-rule:nonzero;stroke:none"
             id="path746" /></g><g
           id="g748"
           transform="translate(158.4668,467.307)"><path
             d="m 0,0 c 0,-2.658 -2.155,-4.813 -4.813,-4.813 -2.658,0 -4.813,2.155 -4.812,4.813 0,2.658 2.154,4.813 4.812,4.813 C -2.155,4.813 0,2.658 0,0"
             style="fill:#4f4c4d;fill-opacity:1;fill-rule:nonzero;stroke:none"
             id="path750" /></g><g
           id="g752"
           transform="translate(199.9214,459.9237)"><path
             d="m 0,0 c -0.178,0.524 -0.67,0.876 -1.224,0.876 h -5.081 c -0.554,0 -1.047,-0.352 -1.225,-0.877 -0.178,-0.524 -0.003,-1.103 0.436,-1.441 l 2.054,-1.582 c 0.376,-0.289 0.826,-0.433 1.275,-0.433 0.45,0 0.9,0.144 1.275,0.433 l 2.055,1.582 C 0.004,-1.104 0.179,-0.524 0,0"
             style="fill:#4f4c4d;fill-opacity:1;fill-rule:nonzero;stroke:none"
             id="path754" /></g><g
           id="g756"
           transform="translate(217.3281,452.7162)"><path
             d="m 0,0 c -0.361,-1.119 -0.854,-2.049 -1.493,-2.969 -0.629,-0.907 -1.438,-1.722 -2.395,-2.344 -1.902,-1.344 -4.409,-1.514 -6.524,-1.056 -0.268,0.059 -0.546,0.097 -0.805,0.177 l -0.768,0.26 c -0.504,0.168 -1.046,0.349 -1.513,0.583 -0.953,0.442 -1.873,0.93 -2.774,1.459 -0.451,0.264 -0.895,0.539 -1.332,0.827 -0.428,0.266 -0.923,0.657 -1.202,0.8 -0.727,0.394 -1.587,0.598 -2.424,0.577 h -0.001 l -0.019,2 h 0.156 0.002 l -0.019,-2 c -0.838,0.022 -1.698,-0.18 -2.427,-0.573 -0.28,-0.143 -0.774,-0.533 -1.202,-0.798 -0.438,-0.287 -0.883,-0.562 -1.334,-0.825 -0.902,-0.528 -1.822,-1.014 -2.775,-1.454 -0.467,-0.234 -1.008,-0.414 -1.512,-0.581 -0.508,-0.184 -1.022,-0.352 -1.572,-0.435 -2.113,-0.456 -4.614,-0.282 -6.507,1.059 -0.954,0.622 -1.76,1.435 -2.386,2.341 -0.635,0.917 -1.127,1.848 -1.485,2.961 -0.141,0.438 0.1,0.907 0.538,1.048 0.43,0.138 0.89,-0.092 1.04,-0.515 l 0.023,-0.066 c 0.592,-1.677 1.723,-3.377 3.226,-4.302 1.479,-1.02 3.374,-1.131 5.172,-0.732 0.226,0.054 0.456,0.081 0.679,0.155 l 0.669,0.239 c 0.456,0.16 0.879,0.298 1.318,0.525 0.882,0.422 1.751,0.896 2.592,1.404 0.421,0.255 0.836,0.518 1.242,0.793 0.432,0.272 0.718,0.541 1.323,0.895 1.049,0.584 2.226,0.873 3.415,0.86 0.553,-0.005 0.996,-0.457 0.991,-1.009 -0.006,-0.549 -0.453,-0.99 -1,-0.99 h -0.009 -0.002 -0.156 -0.032 c -0.552,0 -1,0.448 -1,1 0,0.552 0.448,1 1,1 l 0.012,-0.001 h 0.003 c 1.19,0.014 2.367,-0.274 3.417,-0.857 0.607,-0.354 0.891,-0.623 1.324,-0.894 0.406,-0.274 0.821,-0.537 1.242,-0.791 0.842,-0.506 1.711,-0.978 2.593,-1.399 0.44,-0.226 0.862,-0.363 1.318,-0.522 l 0.668,-0.238 c 0.224,-0.073 0.453,-0.1 0.678,-0.154 1.797,-0.395 3.684,-0.28 5.155,0.737 1.495,0.923 2.621,2.621 3.207,4.29 l 0.024,0.068 c 0.159,0.451 0.653,0.689 1.104,0.53 C -0.093,0.927 0.144,0.445 0,0"
             style="fill:#4f4c4d;fill-opacity:1;fill-rule:nonzero;stroke:none"
             id="path758" /></g><g
           id="g760"
           transform="translate(147.8711,450.8377)"><path
             d="m 0,0 c 0,-3.661 -3.756,-6.628 -8.391,-6.628 -4.633,0 -8.39,2.967 -8.39,6.628 0,3.661 3.757,6.628 8.39,6.628 C -3.756,6.628 0,3.661 0,0"
             style="fill:#fbccd6;fill-opacity:1;fill-rule:nonzero;stroke:none"
             id="path762" /></g><g
           id="g764"
           transform="translate(244.4761,450.8377)"><path
             d="m 0,0 c 0,-3.661 3.756,-6.628 8.391,-6.628 4.633,0 8.39,2.967 8.39,6.628 0,3.661 -3.757,6.628 -8.39,6.628 C 3.756,6.628 0,3.661 0,0"
             style="fill:#fbccd6;fill-opacity:1;fill-rule:nonzero;stroke:none"
             id="path766" /></g><g
           id="g768"
           transform="translate(120.1304,503.9671)"><path
             d="m 0,0 c 19.883,-3.852 0.51,25.899 -15.973,37.426 -20.254,14.519 -43.189,1.501 -44.241,-19.271 -1.161,-22.905 15.714,-34.405 34.919,-30.28 20.019,4.3 22.061,30.584 9.574,40.91 -7.112,5.882 -18.112,5.382 -24.267,0.644 -11.42,-8.79 -6.913,-21.776 -0.137,-26.104 7.292,-4.658 17.929,-0.075 18.125,7.175 0.167,6.167 -7.5,9.125 -11.75,6.5"
             style="fill:#faf8cb;fill-opacity:1;fill-rule:nonzero;stroke:#4f4c4d;stroke-width:2.126;stroke-linecap:round;stroke-linejoin:round;stroke-miterlimit:4;stroke-dasharray:none;stroke-opacity:1"
             id="path770" /></g><g
           id="g772"
           transform="translate(151.2715,501.4364)"><path
             d="m 0,0 c 10.463,12.92 9.518,31.363 0.624,40.801 -0.87,0.924 -1.678,0.469 -1.995,0.172 -12.329,-11.398 -24.902,-12.116 -45.871,-1 16.483,-11.527 14.723,-37.58 -4.408,-48.571 -0.404,-0.231 -0.692,-0.994 -0.071,-1.467 15.308,-11.622 35.909,-8.303 47.681,5.486 0.657,0.769 0.662,1.906 0.147,2.839 -4.974,9.016 -10.59,14.461 -10.59,14.461 0,0 6.282,-4.774 12.635,-12.486 C -1.345,-0.377 -0.464,-0.572 0,0"
             style="fill:#8acdb1;fill-opacity:1;fill-rule:nonzero;stroke:none"
             id="path774" /></g><g
           id="g776"
           transform="translate(151.2715,501.4364)"><path
             d="m 0,0 c 10.463,12.92 9.518,31.363 0.624,40.801 -0.87,0.924 -1.678,0.469 -1.995,0.172 -12.329,-11.398 -24.902,-12.116 -45.871,-1 16.483,-11.527 14.723,-37.58 -4.408,-48.571 -0.404,-0.231 -0.692,-0.994 -0.071,-1.467 15.308,-11.622 35.909,-8.303 47.681,5.486 0.657,0.769 0.662,1.906 0.147,2.839 -4.974,9.016 -10.59,14.461 -10.59,14.461 0,0 6.282,-4.774 12.635,-12.486 C -1.345,-0.377 -0.464,-0.572 0,0 Z"
             style="fill:none;stroke:#4f4c4d;stroke-width:2.126;stroke-linecap:round;stroke-linejoin:round;stroke-miterlimit:4;stroke-dasharray:none;stroke-opacity:1"
             id="path778" /></g><g
           id="g780"
           transform="translate(178.7593,548.4291)"><path
             d="m 0,0 c -12.753,5.833 -19.104,-9.333 -19.104,-9.333 -6.403,-15 5.453,-25.667 5.453,-25.667 11.618,-8.834 27.851,6.448 27.851,6.448"
             style="fill:#e3f5ec;fill-opacity:1;fill-rule:nonzero;stroke:none"
             id="path782" /></g><g
           id="g784"
           transform="translate(178.459,547.7728)"><path
             d="m 0,0 c -1.901,0.819 -3.938,1.314 -5.946,1.166 -2.002,-0.139 -3.936,-0.864 -5.596,-2.044 -1.666,-1.173 -3.086,-2.72 -4.28,-4.42 -0.593,-0.855 -1.138,-1.749 -1.614,-2.672 -0.233,-0.472 -0.472,-0.905 -0.625,-1.396 l -0.518,-1.475 c -0.405,-0.968 -0.527,-2.005 -0.782,-3.008 -0.145,-0.5 -0.135,-1.023 -0.207,-1.533 -0.039,-0.514 -0.14,-1.026 -0.131,-1.541 -0.045,-2.064 0.214,-4.124 0.745,-6.122 1.145,-3.946 3.397,-7.705 6.289,-10.536 l -0.065,0.054 c 0.97,-0.702 2.007,-1.295 3.113,-1.727 1.117,-0.403 2.287,-0.652 3.479,-0.746 2.392,-0.172 4.842,0.282 7.175,1.092 2.338,0.812 4.588,1.946 6.719,3.279 2.121,1.328 4.19,2.859 6.015,4.507 l 0.033,0.029 c 0.436,0.393 1.108,0.359 1.501,-0.077 0.393,-0.435 0.36,-1.107 -0.076,-1.5 -2.002,-1.81 -4.098,-3.355 -6.343,-4.769 -2.24,-1.398 -4.616,-2.621 -7.159,-3.484 -2.532,-0.864 -5.261,-1.374 -8.023,-1.162 -1.377,0.115 -2.747,0.411 -4.055,0.894 -1.298,0.511 -2.508,1.211 -3.621,2.03 l -0.015,0.012 c -0.018,0.012 -0.035,0.028 -0.051,0.043 -3.274,3.24 -5.563,7.171 -6.83,11.53 -0.572,2.188 -0.846,4.453 -0.783,6.718 -0.005,0.566 0.102,1.126 0.149,1.689 0.081,0.558 0.079,1.132 0.238,1.675 0.285,1.089 0.449,2.219 0.892,3.253 l 0.581,1.578 c 0.181,0.54 0.469,1.06 0.722,1.551 0.53,0.993 1.127,1.942 1.779,2.855 1.315,1.816 2.883,3.489 4.778,4.785 1.884,1.298 4.153,2.142 6.477,2.241 2.33,0.112 4.6,-0.517 6.636,-1.457 C 0.962,1.146 1.12,0.717 0.953,0.355 0.789,-0.001 0.371,-0.16 0.013,-0.006 Z"
             style="fill:#4f4c4d;fill-opacity:1;fill-rule:nonzero;stroke:none"
             id="path786" /></g><g
           id="g788"
           transform="translate(180.8433,525.1337)"><path
             d="m 0,0 c -1.88,-15.206 8.954,-16.967 14.366,-16.371 10.587,1.165 14.587,12.704 14.587,12.704"
             style="fill:#e3f5ec;fill-opacity:1;fill-rule:nonzero;stroke:none"
             id="path790" /></g><g
           id="g792"
           transform="translate(181.5273,525.0492)"><path
             d="m 0,0 c -0.055,-0.938 -0.148,-1.877 -0.175,-2.812 l 0.05,-1.397 0.023,-0.699 L 0,-5.592 0.209,-6.959 0.595,-8.271 C 0.694,-8.72 0.919,-9.114 1.1,-9.526 l 0.28,-0.614 c 0.107,-0.197 0.244,-0.375 0.363,-0.564 0.947,-1.513 2.327,-2.715 3.941,-3.493 1.612,-0.785 3.425,-1.178 5.249,-1.272 3.671,-0.233 7.288,0.998 10.1,3.315 2.788,2.319 4.953,5.566 6.231,8.92 l 0.027,0.069 c 0.209,0.548 0.822,0.824 1.371,0.615 0.548,-0.209 0.823,-0.823 0.614,-1.371 L 29.273,-3.93 c -0.764,-1.954 -1.726,-3.667 -2.897,-5.32 -1.167,-1.635 -2.538,-3.142 -4.126,-4.414 -3.169,-2.55 -7.382,-3.891 -11.419,-3.554 -2.018,0.137 -4.042,0.602 -5.887,1.536 -1.844,0.923 -3.46,2.374 -4.527,4.146 -0.134,0.221 -0.286,0.433 -0.405,0.661 L -0.3,-10.17 c -0.201,0.472 -0.442,0.931 -0.549,1.43 l -0.404,1.47 -0.207,1.496 c -0.033,0.249 -0.073,0.498 -0.097,0.746 L -1.572,-4.28 -1.6,-2.787 c 0.044,0.99 0.156,1.972 0.232,2.956 0.03,0.379 0.36,0.662 0.739,0.633 C -0.255,0.773 0.026,0.45 0.004,0.077 Z"
             style="fill:#4f4c4d;fill-opacity:1;fill-rule:nonzero;stroke:none"
             id="path794" /></g><g
           id="g796"
           transform="translate(206.6694,523.2626)"><path
             d="m 0,0 c 0,0 -8.142,-6.363 -5.915,-14.879 3.169,-12.122 16.265,-9.75 24.583,-5.621 11.029,5.474 13.441,18.124 13.441,18.124"
             style="fill:#e3f5ec;fill-opacity:1;fill-rule:nonzero;stroke:none"
             id="path798" /></g><g
           id="g800"
           transform="translate(207.1968,522.5873)"><path
             d="m 0,0 c -2.056,-1.752 -3.862,-4.049 -4.922,-6.549 -0.549,-1.25 -0.888,-2.579 -0.959,-3.916 -0.087,-0.669 0.007,-1.337 0.032,-2.005 0.051,-0.33 0.127,-0.657 0.187,-0.987 l 0.094,-0.493 0.163,-0.486 c 0.75,-2.636 2.321,-4.964 4.606,-6.295 2.283,-1.352 5.13,-1.607 7.869,-1.391 2.768,0.228 5.511,1.022 8.123,2.071 2.641,1.05 5.052,2.427 7.131,4.279 2.074,1.842 3.829,4.059 5.184,6.51 1.356,2.425 2.45,5.118 3.029,7.76 l 0.014,0.064 c 0.126,0.573 0.693,0.936 1.266,0.81 0.573,-0.126 0.936,-0.693 0.81,-1.266 L 32.625,-1.9 c -0.684,-3.027 -1.834,-5.755 -3.311,-8.386 -1.469,-2.616 -3.376,-5.009 -5.651,-7.005 -2.265,-2.004 -4.979,-3.522 -7.734,-4.593 -2.769,-1.091 -5.671,-1.919 -8.696,-2.156 -0.758,-0.037 -1.511,-0.117 -2.278,-0.06 l -1.147,0.046 -1.146,0.168 c -0.768,0.07 -1.512,0.355 -2.264,0.549 -0.374,0.109 -0.725,0.304 -1.087,0.454 -0.353,0.174 -0.734,0.291 -1.054,0.533 -0.661,0.438 -1.349,0.84 -1.893,1.427 -0.281,0.278 -0.592,0.532 -0.844,0.833 l -0.707,0.947 c -0.921,1.277 -1.524,2.727 -1.963,4.189 l -0.177,0.548 -0.11,0.575 c -0.069,0.384 -0.152,0.767 -0.207,1.152 -0.033,0.781 -0.126,1.562 -0.026,2.34 0.096,1.558 0.501,3.084 1.123,4.485 1.244,2.829 3.131,5.212 5.492,7.204 0.361,0.305 0.901,0.259 1.206,-0.102 C 0.455,0.888 0.411,0.35 0.052,0.045 Z"
             style="fill:#4f4c4d;fill-opacity:1;fill-rule:nonzero;stroke:none"
             id="path802" /></g><g
           id="g804"
           transform="translate(271.2559,503.9671)"><path
             d="M 0,0 C -19.883,-3.852 -0.51,25.899 15.973,37.426 36.227,51.945 59.162,38.927 60.214,18.155 61.375,-4.75 44.5,-16.25 25.295,-12.125 5.276,-7.825 3.234,18.459 15.721,28.785 22.833,34.667 33.833,34.167 39.988,29.429 51.408,20.639 46.901,7.653 40.125,3.325 32.833,-1.333 22.196,3.25 22,10.5 c -0.167,6.167 7.5,9.125 11.75,6.5"
             style="fill:#faf8cb;fill-opacity:1;fill-rule:nonzero;stroke:#4f4c4d;stroke-width:2.126;stroke-linecap:round;stroke-linejoin:round;stroke-miterlimit:4;stroke-dasharray:none;stroke-opacity:1"
             id="path806" /></g><g
           id="g808"
           transform="translate(240.1147,501.4364)"><path
             d="m 0,0 c -10.462,12.92 -9.518,31.363 -0.624,40.801 0.87,0.924 1.678,0.469 1.995,0.172 C 13.7,29.575 26.273,28.857 47.242,39.973 30.76,28.446 32.519,2.393 51.65,-8.598 52.054,-8.829 52.342,-9.592 51.721,-10.065 36.413,-21.687 15.812,-18.368 4.04,-4.579 3.383,-3.81 3.378,-2.673 3.893,-1.74 c 4.974,9.016 10.59,14.461 10.59,14.461 0,0 -6.282,-4.774 -12.635,-12.486 C 1.345,-0.377 0.464,-0.572 0,0"
             style="fill:#8acdb1;fill-opacity:1;fill-rule:nonzero;stroke:none"
             id="path810" /></g><g
           id="g812"
           transform="translate(240.1147,501.4364)"><path
             d="m 0,0 c -10.462,12.92 -9.518,31.363 -0.624,40.801 0.87,0.924 1.678,0.469 1.995,0.172 C 13.7,29.575 26.273,28.857 47.242,39.973 30.76,28.446 32.519,2.393 51.65,-8.598 52.054,-8.829 52.342,-9.592 51.721,-10.065 36.413,-21.687 15.812,-18.368 4.04,-4.579 3.383,-3.81 3.378,-2.673 3.893,-1.74 c 4.974,9.016 10.59,14.461 10.59,14.461 0,0 -6.282,-4.774 -12.635,-12.486 C 1.345,-0.377 0.464,-0.572 0,0 Z"
             style="fill:none;stroke:#4f4c4d;stroke-width:2.126;stroke-linecap:round;stroke-linejoin:round;stroke-miterlimit:4;stroke-dasharray:none;stroke-opacity:1"
             id="path814" /></g></g></g></g></svg>
